# xmcd
#
# Track frame offsets:
#	150
#	20720
#	37590
#	55251
#	78052
#	94303
#	114064
#	140675
#	157551
#	175885
#	200923
#	219123
#
# Disc length: 3299 seconds
#
# Revision: 0
# Processed by: cddbd v1.5.2PL0 Copyright (c) Steve Scherf et al.
# Submitted via: dBpowerAMP V4.0
#
DISCID=8e0ce10c
DTITLE=The Hollyfelds - Title Stealers
DYEAR=2012
DGENRE=Country
TTITLE0=18 Years
TTITLE1=32nd Street
TTITLE2=Kill You First
TTITLE3=You Can't Remember
TTITLE4=My Poor Father
TTITLE5=Handmade Paper
TTITLE6=Without Cryin'
TTITLE7=Your Loving Girl
TTITLE8=We Both Know
TTITLE9=Sins
TTITLE10=Mama Got a DUI
TTITLE11=Thank You, Goodnight
EXTD=
EXTT0=
EXTT1=
EXTT2=
EXTT3=
EXTT4=
EXTT5=
EXTT6=
EXTT7=
EXTT8=
EXTT9=
EXTT10=
EXTT11=
PLAYORDER=
